<svg id="ZOOM" xmlns="http://www.w3.org/2000/svg" xmlns:xlink="http://www.w3.org/1999/xlink" width="1024" height="780" viewBox="0 0 1024 780">
  <defs>
    <style>
      .cls-1, .cls-12, .cls-13, .cls-7 {
        fill: #4474cd;
      }

      .cls-1 {
        fill-opacity: 0.05;
      }

      .cls-1, .cls-10, .cls-11, .cls-14, .cls-3, .cls-5, .cls-6, .cls-7, .cls-9 {
        fill-rule: evenodd;
      }

      .cls-2 {
        fill: #f49620;
      }

      .cls-3, .cls-4 {
        fill: #fff;
      }

      .cls-3, .cls-9 {
        opacity: 0.85;
      }

      .cls-14, .cls-4 {
        stroke: #707070;
      }

      .cls-4 {
        stroke-width: 0.2px;
      }

      .cls-5 {
        fill: #f4c30a;
      }

      .cls-6 {
        fill: #07af73;
      }

      .cls-8 {
        fill: #e6e6e6;
      }

      .cls-9 {
        fill: #636363;
      }

      .cls-10 {
        fill: #696969;
      }

      .cls-11 {
        fill: #c995cd;
      }

      .cls-12, .cls-13 {
        font-size: 22px;
        font-family: Roboto;
        font-weight: 300;
      }

      .cls-13 {
        text-anchor: middle;
      }

      .cls-14 {
        fill: none;
        stroke-width: 0.29px;
      }
    </style>
  </defs>
  <path id="Shape_2_" data-name="Shape 2 " class="cls-1" d="M337,215L137,404H474L349,215H337Zm26,0L526,404H791L375,215H363Z"/>
  <rect class="cls-2" x="526" y="404" width="264.438" height="48"/>
  <path id="anim_options_" data-name="anim options " class="cls-3" d="M602.212,433.571v-0.162a5.642,5.642,0,0,1-.425-2.4v-5.045a3.28,3.28,0,0,0-1.231-2.609,5.125,5.125,0,0,0-3.279-.947,6.388,6.388,0,0,0-2.423.446,4.362,4.362,0,0,0-1.746,1.21,2.443,2.443,0,0,0-.643,1.586h2.081a1.463,1.463,0,0,1,.75-1.226,3.242,3.242,0,0,1,1.858-.507,2.774,2.774,0,0,1,1.913.583,2,2,0,0,1,.649,1.565v0.861H597.7a7.325,7.325,0,0,0-4.045.947,3.01,3.01,0,0,0-1.438,2.66,2.85,2.85,0,0,0,1.147,2.324,4.552,4.552,0,0,0,2.937.917,4.856,4.856,0,0,0,3.447-1.357,3.651,3.651,0,0,0,.291,1.155h2.171Zm-7.274-1.925a1.636,1.636,0,0,1-.649-1.378q0-2.016,3.805-2.016h1.622V430.5a2.894,2.894,0,0,1-1.264,1.185,3.932,3.932,0,0,1-1.847.456A2.668,2.668,0,0,1,594.938,431.646Zm10.094-9.037v10.962h2.07V425.76a3.406,3.406,0,0,1,1.187-1.276,3.2,3.2,0,0,1,1.768-.487,2.547,2.547,0,0,1,1.829.568,2.366,2.366,0,0,1,.6,1.752v7.254h2.07v-7.244q-0.033-3.919-3.872-3.92a4.6,4.6,0,0,0-3.625,1.58l-0.068-1.378h-1.958Zm14.895,0h-2.07v10.962h2.07V422.609ZM618,420.462a1.249,1.249,0,0,0,.912.3,1.268,1.268,0,0,0,.917-0.3,1.016,1.016,0,0,0,.314-0.76,1.048,1.048,0,0,0-.314-0.77,1.242,1.242,0,0,0-.917-0.314,1.223,1.223,0,0,0-.912.314,1.054,1.054,0,0,0-.308.77A1.022,1.022,0,0,0,618,420.462Zm5.231,2.147v10.962H625.3v-8A2.8,2.8,0,0,1,628.085,424q2.584,0,2.585,2.391v7.183h2.082V426.3a2.443,2.443,0,0,1,.884-1.677,2.922,2.922,0,0,1,1.913-.623,2.786,2.786,0,0,1,1.992.583,2.358,2.358,0,0,1,.593,1.757v7.234h2.071v-7.345q-0.068-3.819-4.051-3.819a5.043,5.043,0,0,0-2.289.486,4.465,4.465,0,0,0-1.572,1.277,3.534,3.534,0,0,0-3.458-1.763,4.691,4.691,0,0,0-3.592,1.418l-0.056-1.216h-1.959Zm25.224,5.511a5.589,5.589,0,0,0,1.528,4.1,5.349,5.349,0,0,0,3.989,1.55,5.791,5.791,0,0,0,2.893-.709,4.838,4.838,0,0,0,1.936-1.98,6.02,6.02,0,0,0,.677-2.872V428.08a5.62,5.62,0,0,0-1.527-4.123,5.366,5.366,0,0,0-4-1.55,5.727,5.727,0,0,0-2.848.7,4.916,4.916,0,0,0-1.947,1.985,5.962,5.962,0,0,0-.7,2.9v0.131Zm3.022-3.069a3.089,3.089,0,0,1,2.473-1.1,3.124,3.124,0,0,1,2.512,1.119,4.373,4.373,0,0,1,.946,2.923,4.775,4.775,0,0,1-.929,3.135,3.374,3.374,0,0,1-5.008.015,4.379,4.379,0,0,1-.934-2.927A4.741,4.741,0,0,1,651.474,425.051Zm20.826,2.988a6.193,6.193,0,0,0-1.27-4.143,4.3,4.3,0,0,0-3.453-1.489,4.467,4.467,0,0,0-3.514,1.418l-0.1-1.216h-1.892v15.176h2.071v-5.278a4.684,4.684,0,0,0,3.469,1.266,4.211,4.211,0,0,0,3.424-1.529,6.126,6.126,0,0,0,1.265-4.032v-0.173Zm-2.949,3.136a2.907,2.907,0,0,1-2.367,1.069,3.112,3.112,0,0,1-2.842-1.5v-5.237a3.1,3.1,0,0,1,2.82-1.51,2.92,2.92,0,0,1,2.395,1.074,4.51,4.51,0,0,1,.872,2.928A4.91,4.91,0,0,1,669.351,431.175Zm6.317-11.22v2.654h-2.2v1.449h2.2v6.8a3.057,3.057,0,0,0,.705,2.158,2.72,2.72,0,0,0,2.093.759,6.641,6.641,0,0,0,1.589-.2v-1.511a5.523,5.523,0,0,1-.985.122,1.346,1.346,0,0,1-1.029-.33,1.416,1.416,0,0,1-.3-0.989v-6.806H680v-1.449h-2.261v-2.654h-2.07Zm9,2.654H682.6v10.962h2.071V422.609Zm-1.931-2.147a1.249,1.249,0,0,0,.912.3,1.271,1.271,0,0,0,.918-0.3,1.015,1.015,0,0,0,.313-0.76,1.047,1.047,0,0,0-.313-0.77,1.244,1.244,0,0,0-.918-0.314,1.223,1.223,0,0,0-.912.314,1.058,1.058,0,0,0-.308.77A1.026,1.026,0,0,0,682.735,420.462Zm4.695,7.658a5.592,5.592,0,0,0,1.527,4.1,5.352,5.352,0,0,0,3.99,1.55,5.793,5.793,0,0,0,2.893-.709,4.845,4.845,0,0,0,1.936-1.98,6.02,6.02,0,0,0,.677-2.872V428.08a5.62,5.62,0,0,0-1.528-4.123,5.365,5.365,0,0,0-4-1.55,5.727,5.727,0,0,0-2.848.7,4.916,4.916,0,0,0-1.947,1.985,5.972,5.972,0,0,0-.7,2.9v0.131Zm3.021-3.069a3.09,3.09,0,0,1,2.473-1.1,3.126,3.126,0,0,1,2.513,1.119,4.377,4.377,0,0,1,.945,2.923,4.769,4.769,0,0,1-.929,3.135,3.373,3.373,0,0,1-5.007.015,4.379,4.379,0,0,1-.935-2.927A4.746,4.746,0,0,1,690.451,425.051Zm10.6-2.442v10.962h2.07V425.76a3.411,3.411,0,0,1,1.186-1.276,3.208,3.208,0,0,1,1.768-.487,2.549,2.549,0,0,1,1.83.568,2.37,2.37,0,0,1,.6,1.752v7.254h2.07v-7.244q-0.033-3.919-3.872-3.92a4.6,4.6,0,0,0-3.626,1.58l-0.067-1.378h-1.958Zm18.985,9.2a3.612,3.612,0,0,1-1.886.431,3.474,3.474,0,0,1-2.053-.552,1.888,1.888,0,0,1-.834-1.5h-2.07a2.936,2.936,0,0,0,.632,1.809,4.119,4.119,0,0,0,1.751,1.3,6.644,6.644,0,0,0,2.574.466,5.861,5.861,0,0,0,3.369-.886,2.727,2.727,0,0,0,1.3-2.355,2.4,2.4,0,0,0-.465-1.5,3.609,3.609,0,0,0-1.426-1.048,11.938,11.938,0,0,0-2.513-.75,7.839,7.839,0,0,1-2.143-.658,1.114,1.114,0,0,1-.593-1.024,1.365,1.365,0,0,1,.638-1.165,3.05,3.05,0,0,1,1.768-.445,2.888,2.888,0,0,1,1.819.557,1.638,1.638,0,0,1,.721,1.327H722.7a2.954,2.954,0,0,0-1.281-2.462,5.425,5.425,0,0,0-3.341-.962,5.267,5.267,0,0,0-3.217.932,2.76,2.76,0,0,0-1.259,2.279,2.254,2.254,0,0,0,.442,1.4,3.49,3.49,0,0,0,1.365,1.013,11.2,11.2,0,0,0,2.5.73,6.477,6.477,0,0,1,2.2.724,1.338,1.338,0,0,1,.633,1.18A1.3,1.3,0,0,1,720.034,431.813Z"/>
  <rect id="frame_copy_4" data-name="frame copy 4" class="cls-4" x="137" y="451" width="337" height="237"/>
  <path class="cls-5" d="M172.934,606.646H437.381v47.879H172.934V606.646Z"/>
  <path id="Rectangle_1_" data-name="Rectangle 1 " class="cls-6" d="M172.934,546H437.381v47.879H172.934V546Z"/>
  <path id="Rectangle_1_2" data-name="Rectangle 1 " class="cls-7" d="M172.934,485.354H437.381v47.878H172.934V485.354Z"/>
  <rect id="Rectangle_1_3" data-name="Rectangle 1 " class="cls-8" x="137" y="404" width="337" height="48"/>
  <path id="style_" data-name="style " class="cls-3" d="M289.138,634.015a3.615,3.615,0,0,1-1.886.431,3.477,3.477,0,0,1-2.054-.552,1.89,1.89,0,0,1-.833-1.5h-2.071a2.937,2.937,0,0,0,.633,1.809,4.113,4.113,0,0,0,1.751,1.3,6.644,6.644,0,0,0,2.574.466,5.855,5.855,0,0,0,3.368-.886,2.726,2.726,0,0,0,1.3-2.355,2.4,2.4,0,0,0-.465-1.5,3.613,3.613,0,0,0-1.427-1.048,11.986,11.986,0,0,0-2.512-.75,7.827,7.827,0,0,1-2.143-.658,1.112,1.112,0,0,1-.593-1.024,1.362,1.362,0,0,1,.638-1.165,3.048,3.048,0,0,1,1.768-.445,2.883,2.883,0,0,1,1.818.557,1.637,1.637,0,0,1,.722,1.327h2.082a2.953,2.953,0,0,0-1.282-2.462,5.422,5.422,0,0,0-3.34-.962,5.265,5.265,0,0,0-3.217.932,2.758,2.758,0,0,0-1.259,2.279,2.254,2.254,0,0,0,.442,1.4,3.475,3.475,0,0,0,1.365,1.013,11.194,11.194,0,0,0,2.5.73,6.484,6.484,0,0,1,2.2.724,1.34,1.34,0,0,1,.632,1.18A1.3,1.3,0,0,1,289.138,634.015Zm6.216-11.858v2.654h-2.2v1.449h2.2v6.8a3.057,3.057,0,0,0,.705,2.158,2.72,2.72,0,0,0,2.093.759,6.641,6.641,0,0,0,1.589-.2v-1.511a5.523,5.523,0,0,1-.985.122,1.346,1.346,0,0,1-1.029-.33,1.416,1.416,0,0,1-.3-0.989V626.26h2.261v-1.449h-2.261v-2.654h-2.07Zm7.688,2.654h-2.26l4.319,10.84-0.459,1.115a2.768,2.768,0,0,1-.968,1.408,2.978,2.978,0,0,1-1.639.385l-0.56-.041v1.52l0.773,0.131,0.391,0.031q2.463,0,3.593-2.735l4.868-12.654h-2.216l-2.82,8.216Zm12.153-4.6h-2.07v15.561h2.07V620.212Zm12.9,13.646-1.264-.891a4.569,4.569,0,0,1-1.332,1.073,3.9,3.9,0,0,1-1.858.406,3.459,3.459,0,0,1-2.546-1,3.689,3.689,0,0,1-1.046-2.619h8.2v-0.78a5.706,5.706,0,0,0-1.309-4.032,4.765,4.765,0,0,0-3.671-1.408,5.209,5.209,0,0,0-2.68.724,5.043,5.043,0,0,0-1.925,2.006,6.055,6.055,0,0,0-.688,2.913V630.6a5.139,5.139,0,0,0,1.544,3.915,5.586,5.586,0,0,0,4.006,1.464,5.252,5.252,0,0,0,4.566-2.117h0Zm-2.764-6.924a3.37,3.37,0,0,1,.851,2.213v0.142h-6.066a3.834,3.834,0,0,1,1.052-2.315,2.9,2.9,0,0,1,2.1-.825A2.732,2.732,0,0,1,325.334,626.934Z"/>
  <path id="config_" data-name="config " class="cls-3" d="M277.074,575.968a4.406,4.406,0,0,1-.862-2.918V572.7a4.493,4.493,0,0,1,.868-2.974,3.023,3.023,0,0,1,2.445-1.028,2.936,2.936,0,0,1,1.975.684,2.49,2.49,0,0,1,.89,1.747h1.958a3.8,3.8,0,0,0-1.438-2.866,5.162,5.162,0,0,0-3.385-1.105,5.728,5.728,0,0,0-2.871.689,4.647,4.647,0,0,0-1.863,1.935,6.07,6.07,0,0,0-.649,2.847v0.314a5.6,5.6,0,0,0,1.46,4.088,5.25,5.25,0,0,0,3.934,1.494,5.516,5.516,0,0,0,2.333-.507,4.619,4.619,0,0,0,1.763-1.357,3.2,3.2,0,0,0,.716-1.793H282.39a2.094,2.094,0,0,1-.918,1.519,3.184,3.184,0,0,1-1.936.608A3.039,3.039,0,0,1,277.074,575.968Zm9.053-3.1a5.6,5.6,0,0,0,1.528,4.1,5.353,5.353,0,0,0,3.989,1.55,5.8,5.8,0,0,0,2.893-.709,4.835,4.835,0,0,0,1.936-1.981,6.017,6.017,0,0,0,.677-2.872v-0.132a5.621,5.621,0,0,0-1.527-4.123,5.37,5.37,0,0,0-4-1.55,5.727,5.727,0,0,0-2.848.7,4.913,4.913,0,0,0-1.947,1.986,5.958,5.958,0,0,0-.7,2.9v0.132Zm3.022-3.07a3.09,3.09,0,0,1,2.473-1.1,3.122,3.122,0,0,1,2.512,1.12,4.37,4.37,0,0,1,.946,2.922,4.78,4.78,0,0,1-.929,3.136,3.376,3.376,0,0,1-5.008.015,4.38,4.38,0,0,1-.934-2.928A4.743,4.743,0,0,1,289.149,569.8Zm10.6-2.441v10.961h2.07v-7.811A3.411,3.411,0,0,1,303,569.231a3.213,3.213,0,0,1,1.768-.486,2.555,2.555,0,0,1,1.83.567,2.375,2.375,0,0,1,.6,1.753v7.253h2.07v-7.243q-0.034-3.921-3.872-3.921a4.6,4.6,0,0,0-3.626,1.581l-0.067-1.378h-1.958Zm15.734,10.961v-9.512h2.585v-1.449h-2.585V566.2a2.034,2.034,0,0,1,.548-1.529,2.139,2.139,0,0,1,1.556-.534,6.533,6.533,0,0,1,1.119.092l0.112-1.511a6.012,6.012,0,0,0-1.422-.171,4.178,4.178,0,0,0-2.943.962,3.527,3.527,0,0,0-1.041,2.725v1.125H311.5v1.449h1.913v9.512h2.071Zm7.117-10.961h-2.07v10.961h2.07V567.357Zm-1.93-2.148a1.245,1.245,0,0,0,.912.3,1.264,1.264,0,0,0,.917-0.3,1.014,1.014,0,0,0,.314-0.76,1.049,1.049,0,0,0-.314-0.77,1.242,1.242,0,0,0-.917-0.314,1.223,1.223,0,0,0-.912.314,1.056,1.056,0,0,0-.308.77A1.021,1.021,0,0,0,320.668,565.209Zm6.065,11.762a4.3,4.3,0,0,0,3.441,1.55,4.472,4.472,0,0,0,3.391-1.3v0.942a2.785,2.785,0,0,1-.845,2.168,3.37,3.37,0,0,1-2.356.77,4.2,4.2,0,0,1-3.256-1.489l-1.074,1.124a4.356,4.356,0,0,0,1.913,1.388,6.78,6.78,0,0,0,2.563.507,5.464,5.464,0,0,0,3.743-1.226,4.235,4.235,0,0,0,1.393-3.353v-10.7h-1.891l-0.1,1.216a4.823,4.823,0,0,0-6.927.1,6.024,6.024,0,0,0-1.309,4.077A6.322,6.322,0,0,0,326.733,576.971Zm1.617-7.163a2.854,2.854,0,0,1,2.361-1.063,3.12,3.12,0,0,1,2.854,1.57v5a3.079,3.079,0,0,1-2.876,1.61,2.83,2.83,0,0,1-2.35-1.058,4.569,4.569,0,0,1-.839-2.913A4.971,4.971,0,0,1,328.35,569.808Z"/>
  <path id="data_" data-name="data " class="cls-3" d="M283.548,509.848a6.07,6.07,0,0,0,1.326,4.072,4.292,4.292,0,0,0,3.43,1.56,4.419,4.419,0,0,0,3.458-1.377l0.1,1.175h1.9V499.717H291.7v5.714a4.409,4.409,0,0,0-3.369-1.317,4.341,4.341,0,0,0-3.458,1.535,6,6,0,0,0-1.32,4.057v0.142Zm2.921-3.08a2.866,2.866,0,0,1,2.372-1.064,3.1,3.1,0,0,1,2.854,1.55v5.035a3.067,3.067,0,0,1-2.876,1.6,2.852,2.852,0,0,1-2.35-1.054,4.522,4.522,0,0,1-.851-2.917A4.967,4.967,0,0,1,286.469,506.768Zm20.154,8.51v-0.162a5.657,5.657,0,0,1-.425-2.4V507.67a3.277,3.277,0,0,0-1.231-2.609,5.125,5.125,0,0,0-3.279-.947,6.411,6.411,0,0,0-2.423.446,4.351,4.351,0,0,0-1.745,1.21,2.439,2.439,0,0,0-.644,1.586h2.082a1.462,1.462,0,0,1,.749-1.226,3.242,3.242,0,0,1,1.858-.507,2.784,2.784,0,0,1,1.914.583,2,2,0,0,1,.649,1.565v0.861h-2.015a7.325,7.325,0,0,0-4.045.947,3.01,3.01,0,0,0-1.438,2.66,2.854,2.854,0,0,0,1.147,2.325,4.56,4.56,0,0,0,2.937.916,4.856,4.856,0,0,0,3.447-1.357,3.651,3.651,0,0,0,.291,1.155h2.171Zm-7.274-1.925a1.636,1.636,0,0,1-.649-1.378q0-2.016,3.805-2.016h1.623v2.249a2.9,2.9,0,0,1-1.265,1.185,3.931,3.931,0,0,1-1.846.456A2.669,2.669,0,0,1,299.349,513.353Zm10.833-11.691v2.654h-2.205v1.449h2.205v6.8a3.057,3.057,0,0,0,.7,2.158,2.718,2.718,0,0,0,2.093.759,6.647,6.647,0,0,0,1.589-.2v-1.511a5.523,5.523,0,0,1-.985.122,1.35,1.35,0,0,1-1.03-.33,1.42,1.42,0,0,1-.3-0.989v-6.806h2.261v-1.449h-2.261v-2.654h-2.07Zm16.394,13.616v-0.162a5.657,5.657,0,0,1-.425-2.4V507.67a3.277,3.277,0,0,0-1.231-2.609,5.125,5.125,0,0,0-3.279-.947,6.411,6.411,0,0,0-2.423.446,4.365,4.365,0,0,0-1.745,1.21,2.444,2.444,0,0,0-.644,1.586h2.082a1.464,1.464,0,0,1,.749-1.226,3.244,3.244,0,0,1,1.858-.507,2.784,2.784,0,0,1,1.914.583,2,2,0,0,1,.649,1.565v0.861h-2.015a7.327,7.327,0,0,0-4.045.947,3.01,3.01,0,0,0-1.438,2.66,2.854,2.854,0,0,0,1.147,2.325,4.561,4.561,0,0,0,2.938.916,4.855,4.855,0,0,0,3.446-1.357,3.651,3.651,0,0,0,.291,1.155h2.171Zm-7.274-1.925a1.639,1.639,0,0,1-.649-1.378q0-2.016,3.805-2.016h1.623v2.249a2.9,2.9,0,0,1-1.265,1.185,3.931,3.931,0,0,1-1.846.456A2.669,2.669,0,0,1,319.3,513.353Z"/>
  <path id="Chart_" data-name="Chart " class="cls-9" d="M291,428.971a4.313,4.313,0,0,1-1.354,2.812,4.905,4.905,0,0,1-3.257.937,4.292,4.292,0,0,1-3.463-1.521,6.115,6.115,0,0,1-1.282-4.076v-1.8a6.085,6.085,0,0,1,1.315-4.147,4.46,4.46,0,0,1,3.531-1.5q3.995,0,4.51,3.758h1.387a5.144,5.144,0,0,0-1.762-3.536,6.219,6.219,0,0,0-4.135-1.276,6.435,6.435,0,0,0-3.285.826,5.471,5.471,0,0,0-2.187,2.345,7.673,7.673,0,0,0-.761,3.485v1.914a7.6,7.6,0,0,0,.772,3.44,5.521,5.521,0,0,0,2.154,2.325,6.2,6.2,0,0,0,3.206.82,6.511,6.511,0,0,0,4.158-1.236,5.1,5.1,0,0,0,1.84-3.566H291Zm5.752-10.961h-1.332v15.561h1.332v-7.507a4.145,4.145,0,0,1,1.415-1.9,3.616,3.616,0,0,1,2.2-.7,2.855,2.855,0,0,1,2.166.72,3.129,3.129,0,0,1,.688,2.188v7.2h1.332v-7.193a4.193,4.193,0,0,0-.963-2.978,3.84,3.84,0,0,0-2.9-.993,4.788,4.788,0,0,0-2.249.537,4.531,4.531,0,0,0-1.69,1.519V418.01Zm20.322,15.561v-0.122a5.882,5.882,0,0,1-.369-2.381v-5.186a3.154,3.154,0,0,0-1.2-2.558,5.046,5.046,0,0,0-3.195-.917,5.539,5.539,0,0,0-3.3.957,2.751,2.751,0,0,0-1.343,2.264l1.343,0.01a1.884,1.884,0,0,1,.917-1.56,3.921,3.921,0,0,1,2.317-.648,3.536,3.536,0,0,1,2.333.674,2.288,2.288,0,0,1,.8,1.848V427.2H312.94a7.637,7.637,0,0,0-4.1.932,2.864,2.864,0,0,0-1.472,2.532,2.756,2.756,0,0,0,1.08,2.229,4.325,4.325,0,0,0,2.825.881,6,6,0,0,0,2.311-.45,4.626,4.626,0,0,0,1.8-1.282,5.276,5.276,0,0,0,.258,1.53h1.432Zm-7.6-1.479a1.887,1.887,0,0,1-.755-1.53,1.964,1.964,0,0,1,1.13-1.768,6.5,6.5,0,0,1,3.133-.663h2.395v2.411a3.6,3.6,0,0,1-1.538,1.57,4.858,4.858,0,0,1-2.4.587A3.037,3.037,0,0,1,309.465,432.092Zm16.434-9.553a2.406,2.406,0,0,0-.884-0.132,3.6,3.6,0,0,0-3.413,1.945l-0.023-1.743H320.27v10.962H321.6v-7.527a3.435,3.435,0,0,1,1.236-1.839,3.5,3.5,0,0,1,2.121-.633,5.539,5.539,0,0,1,.906.071Zm3.379-2.736v2.806h-2.227V423.6h2.227v7.314a3.176,3.176,0,0,0,.627,2.133,2.515,2.515,0,0,0,2,.724,4.836,4.836,0,0,0,1.433-.17l-0.056-.985a9.122,9.122,0,0,1-1.086.1,1.482,1.482,0,0,1-1.214-.446,2.124,2.124,0,0,1-.364-1.36V423.6h2.507v-0.993h-2.507V419.8h-1.343Z"/>
  <path id="animate_..._..._" data-name="animate( ... , ... ) " class="cls-10" d="M644.787,202.835V202.7a5.346,5.346,0,0,1-.334-2.083v-4.377a2.967,2.967,0,0,0-.967-2.263,3.759,3.759,0,0,0-2.575-.822,4.608,4.608,0,0,0-1.9.387,3.455,3.455,0,0,0-1.371,1.05,2.243,2.243,0,0,0-.506,1.375h1.635a1.3,1.3,0,0,1,.589-1.063,2.372,2.372,0,0,1,1.459-.44,2.049,2.049,0,0,1,1.5.506,1.827,1.827,0,0,1,.51,1.358v0.747h-1.582a5.319,5.319,0,0,0-3.177.822,2.689,2.689,0,0,0-1.13,2.307,2.572,2.572,0,0,0,.9,2.017,3.359,3.359,0,0,0,2.307.795,3.628,3.628,0,0,0,2.707-1.177,3.409,3.409,0,0,0,.229,1h1.705Zm-5.713-1.669a1.481,1.481,0,0,1-.51-1.2q0-1.749,2.988-1.749h1.275v1.951a2.394,2.394,0,0,1-.993,1.029,2.866,2.866,0,0,1-1.451.4A1.959,1.959,0,0,1,639.074,201.166Zm7.928-7.84v9.509h1.626v-6.776a2.859,2.859,0,0,1,.931-1.107,2.345,2.345,0,0,1,1.389-.422,1.886,1.886,0,0,1,1.437.492,2.187,2.187,0,0,1,.47,1.52v6.293h1.626v-6.284q-0.025-3.4-3.041-3.4a3.467,3.467,0,0,0-2.848,1.371l-0.052-1.195H647Zm11.7,0h-1.626v9.509H658.7v-9.509Zm-1.516-1.864a0.923,0.923,0,0,0,.716.264,0.939,0.939,0,0,0,.721-0.264,0.927,0.927,0,0,0,.246-0.659,0.962,0.962,0,0,0-.246-0.668,0.925,0.925,0,0,0-.721-0.272,0.909,0.909,0,0,0-.716.272,0.973,0.973,0,0,0-.242.668A0.937,0.937,0,0,0,657.184,191.462Zm4.109,1.864v9.509h1.626v-6.943a2.175,2.175,0,0,1,2.188-1.362,1.814,1.814,0,0,1,2.03,2.074v6.231h1.635v-6.31a2.2,2.2,0,0,1,.694-1.455,2.159,2.159,0,0,1,1.5-.54,2.052,2.052,0,0,1,1.565.5A2.186,2.186,0,0,1,673,196.56v6.275h1.626v-6.372q-0.054-3.314-3.182-3.313a3.647,3.647,0,0,0-1.8.422,3.594,3.594,0,0,0-1.235,1.107,2.72,2.72,0,0,0-2.716-1.529,3.511,3.511,0,0,0-2.821,1.23l-0.044-1.054h-1.538Zm23.361,9.509V202.7a5.346,5.346,0,0,1-.334-2.083v-4.377a2.967,2.967,0,0,0-.967-2.263,3.758,3.758,0,0,0-2.575-.822,4.608,4.608,0,0,0-1.9.387,3.455,3.455,0,0,0-1.371,1.05,2.242,2.242,0,0,0-.5,1.375h1.634a1.3,1.3,0,0,1,.589-1.063,2.372,2.372,0,0,1,1.459-.44,2.049,2.049,0,0,1,1.5.506,1.827,1.827,0,0,1,.51,1.358v0.747h-1.582a5.324,5.324,0,0,0-3.177.822,2.689,2.689,0,0,0-1.13,2.307,2.575,2.575,0,0,0,.9,2.017,3.359,3.359,0,0,0,2.307.795,3.628,3.628,0,0,0,2.707-1.177,3.409,3.409,0,0,0,.229,1h1.705Zm-5.713-1.669a1.481,1.481,0,0,1-.51-1.2q0-1.749,2.989-1.749h1.274v1.951a2.394,2.394,0,0,1-.993,1.029,2.865,2.865,0,0,1-1.45.4A1.96,1.96,0,0,1,678.941,201.166Zm8.508-10.143v2.3h-1.732v1.257h1.732v5.9a2.825,2.825,0,0,0,.554,1.872,2.021,2.021,0,0,0,1.643.659,4.762,4.762,0,0,0,1.248-.174v-1.311a3.953,3.953,0,0,1-.773.1,1,1,0,0,1-.809-0.286,1.319,1.319,0,0,1-.237-0.858v-5.9h1.775v-1.257h-1.775v-2.3h-1.626Zm12.832,10.151-0.993-.773a3.681,3.681,0,0,1-1.046.932,2.838,2.838,0,0,1-1.459.351,2.582,2.582,0,0,1-2-.866,3.379,3.379,0,0,1-.821-2.272H700.4V197.87a5.291,5.291,0,0,0-1.028-3.5,3.562,3.562,0,0,0-2.883-1.222,3.8,3.8,0,0,0-2.105.628,4.208,4.208,0,0,0-1.512,1.741,5.708,5.708,0,0,0-.54,2.526v0.3a4.715,4.715,0,0,0,1.212,3.4,4.156,4.156,0,0,0,3.147,1.27,3.993,3.993,0,0,0,3.586-1.837h0Zm-2.171-6.007a3.1,3.1,0,0,1,.668,1.92v0.123h-4.764a3.488,3.488,0,0,1,.826-2.008,2.172,2.172,0,0,1,1.653-.716A2.044,2.044,0,0,1,698.11,195.167Zm6.187,9.62a6.966,6.966,0,0,0,2.233,2.179l0.334-.993a7.009,7.009,0,0,1-1.775-2.338,13.087,13.087,0,0,1-1.24-5.888l0.009-.747a13.038,13.038,0,0,1,.9-4.527,7.006,7.006,0,0,1,2.105-3.006L706.53,188.4a6.755,6.755,0,0,0-2.189,2.109,11.083,11.083,0,0,0-1.586,3.323,13.564,13.564,0,0,0-.532,3.814,12.222,12.222,0,0,0,2.074,7.146h0Zm8.882-2.127a0.972,0.972,0,0,0,.751.272,1,1,0,0,0,.761-0.272,0.947,0.947,0,0,0,.259-0.677,1,1,0,0,0-.259-0.7A0.983,0.983,0,0,0,713.93,201a0.952,0.952,0,0,0-.751.281,1.018,1.018,0,0,0-.251.7A0.963,0.963,0,0,0,713.179,202.66Zm4.737,0a0.975,0.975,0,0,0,.752.272,1,1,0,0,0,.76-0.272,0.943,0.943,0,0,0,.259-0.677,1,1,0,0,0-.259-0.7,0.981,0.981,0,0,0-.76-0.281,0.954,0.954,0,0,0-.752.281,1.017,1.017,0,0,0-.25.7A0.962,0.962,0,0,0,717.916,202.66Zm4.737,0a0.975,0.975,0,0,0,.752.272,1,1,0,0,0,.76-0.272,0.943,0.943,0,0,0,.259-0.677,1,1,0,0,0-.259-0.7,0.981,0.981,0,0,0-.76-0.281,0.954,0.954,0,0,0-.752.281,1.017,1.017,0,0,0-.25.7A0.962,0.962,0,0,0,722.653,202.66Zm9.95,1.3a4,4,0,0,0,.435-1.775v-1.274h-1.591v1.467a4.248,4.248,0,0,1-.861,2.373l0.922,0.633A4.146,4.146,0,0,0,732.6,203.96Zm7.233-1.3a0.975,0.975,0,0,0,.752.272,1,1,0,0,0,.76-0.272,0.943,0.943,0,0,0,.259-0.677,1,1,0,0,0-.259-0.7,0.981,0.981,0,0,0-.76-0.281,0.954,0.954,0,0,0-.752.281,1.017,1.017,0,0,0-.25.7A0.962,0.962,0,0,0,739.836,202.66Zm4.737,0a0.975,0.975,0,0,0,.752.272,1,1,0,0,0,.76-0.272,0.943,0.943,0,0,0,.259-0.677,1,1,0,0,0-.259-0.7,0.981,0.981,0,0,0-.76-0.281,0.954,0.954,0,0,0-.752.281,1.017,1.017,0,0,0-.25.7A0.962,0.962,0,0,0,744.573,202.66Zm4.738,0a0.972,0.972,0,0,0,.751.272,1,1,0,0,0,.76-0.272,0.944,0.944,0,0,0,.26-0.677,1,1,0,0,0-.26-0.7,0.981,0.981,0,0,0-.76-0.281,0.952,0.952,0,0,0-.751.281,1.018,1.018,0,0,0-.251.7A0.963,0.963,0,0,0,749.311,202.66Zm12.137-8.807a11.121,11.121,0,0,0-1.573-3.313,6.872,6.872,0,0,0-2.21-2.145l-0.343.993a6.573,6.573,0,0,1,1.551,1.96,11.6,11.6,0,0,1,1.077,2.843,14.466,14.466,0,0,1,.386,3.433v0.281a13.916,13.916,0,0,1-.839,4.847,7.067,7.067,0,0,1-2.175,3.221l0.343,0.993a6.885,6.885,0,0,0,2.219-2.162,11.112,11.112,0,0,0,1.573-3.318,13.581,13.581,0,0,0,.514-3.757A13.9,13.9,0,0,0,761.448,193.853Z"/>
  <path id="animate_..._..._2" data-name="animate( ... , ... )  " class="cls-10" d="M268.787,202.835V202.7a5.346,5.346,0,0,1-.334-2.083v-4.377a2.967,2.967,0,0,0-.967-2.263,3.759,3.759,0,0,0-2.575-.822,4.608,4.608,0,0,0-1.9.387,3.455,3.455,0,0,0-1.371,1.05,2.243,2.243,0,0,0-.506,1.375h1.635a1.3,1.3,0,0,1,.589-1.063,2.372,2.372,0,0,1,1.459-.44,2.049,2.049,0,0,1,1.5.506,1.827,1.827,0,0,1,.51,1.358v0.747h-1.582a5.319,5.319,0,0,0-3.177.822,2.689,2.689,0,0,0-1.13,2.307,2.572,2.572,0,0,0,.9,2.017,3.359,3.359,0,0,0,2.307.795,3.628,3.628,0,0,0,2.707-1.177,3.409,3.409,0,0,0,.229,1h1.7Zm-5.713-1.669a1.481,1.481,0,0,1-.51-1.2q0-1.749,2.988-1.749h1.275v1.951a2.394,2.394,0,0,1-.993,1.029,2.866,2.866,0,0,1-1.451.4A1.959,1.959,0,0,1,263.074,201.166Zm7.928-7.84v9.509h1.626v-6.776a2.859,2.859,0,0,1,.931-1.107,2.345,2.345,0,0,1,1.389-.422,1.886,1.886,0,0,1,1.437.492,2.187,2.187,0,0,1,.47,1.52v6.293h1.626v-6.284q-0.025-3.4-3.041-3.4a3.467,3.467,0,0,0-2.848,1.371l-0.052-1.195H271Zm11.7,0h-1.626v9.509H282.7v-9.509Zm-1.516-1.864a0.923,0.923,0,0,0,.716.264,0.939,0.939,0,0,0,.721-0.264,0.927,0.927,0,0,0,.246-0.659,0.962,0.962,0,0,0-.246-0.668,0.925,0.925,0,0,0-.721-0.272,0.909,0.909,0,0,0-.716.272,0.973,0.973,0,0,0-.242.668A0.937,0.937,0,0,0,281.184,191.462Zm4.109,1.864v9.509h1.626v-6.943a2.175,2.175,0,0,1,2.188-1.362,1.814,1.814,0,0,1,2.03,2.074v6.231h1.635v-6.31a2.2,2.2,0,0,1,.694-1.455,2.159,2.159,0,0,1,1.5-.54,2.052,2.052,0,0,1,1.565.5A2.186,2.186,0,0,1,297,196.56v6.275h1.626v-6.372q-0.054-3.314-3.182-3.313a3.647,3.647,0,0,0-1.8.422,3.594,3.594,0,0,0-1.235,1.107,2.72,2.72,0,0,0-2.716-1.529,3.511,3.511,0,0,0-2.821,1.23l-0.044-1.054h-1.538Zm23.361,9.509V202.7a5.346,5.346,0,0,1-.334-2.083v-4.377a2.967,2.967,0,0,0-.967-2.263,3.758,3.758,0,0,0-2.575-.822,4.608,4.608,0,0,0-1.9.387,3.455,3.455,0,0,0-1.371,1.05,2.242,2.242,0,0,0-.5,1.375h1.634a1.3,1.3,0,0,1,.589-1.063,2.372,2.372,0,0,1,1.459-.44,2.049,2.049,0,0,1,1.5.506,1.827,1.827,0,0,1,.51,1.358v0.747h-1.582a5.324,5.324,0,0,0-3.177.822,2.689,2.689,0,0,0-1.13,2.307,2.575,2.575,0,0,0,.9,2.017,3.359,3.359,0,0,0,2.307.795,3.628,3.628,0,0,0,2.707-1.177,3.409,3.409,0,0,0,.229,1h1.7Zm-5.713-1.669a1.481,1.481,0,0,1-.51-1.2q0-1.749,2.989-1.749h1.274v1.951a2.394,2.394,0,0,1-.993,1.029,2.865,2.865,0,0,1-1.45.4A1.96,1.96,0,0,1,302.941,201.166Zm8.508-10.143v2.3h-1.732v1.257h1.732v5.9a2.825,2.825,0,0,0,.554,1.872,2.021,2.021,0,0,0,1.643.659,4.762,4.762,0,0,0,1.248-.174v-1.311a3.953,3.953,0,0,1-.773.1,1,1,0,0,1-.809-0.286,1.319,1.319,0,0,1-.237-0.858v-5.9h1.775v-1.257h-1.775v-2.3h-1.626Zm12.832,10.151-0.993-.773a3.681,3.681,0,0,1-1.046.932,2.838,2.838,0,0,1-1.459.351,2.582,2.582,0,0,1-2-.866,3.379,3.379,0,0,1-.821-2.272H324.4V197.87a5.291,5.291,0,0,0-1.028-3.5,3.562,3.562,0,0,0-2.883-1.222,3.8,3.8,0,0,0-2.105.628,4.208,4.208,0,0,0-1.512,1.741,5.708,5.708,0,0,0-.54,2.526v0.3a4.715,4.715,0,0,0,1.212,3.4,4.156,4.156,0,0,0,3.147,1.27,3.993,3.993,0,0,0,3.586-1.837h0Zm-2.171-6.007a3.1,3.1,0,0,1,.668,1.92v0.123h-4.764a3.488,3.488,0,0,1,.826-2.008,2.172,2.172,0,0,1,1.653-.716A2.044,2.044,0,0,1,322.11,195.167Zm6.187,9.62a6.966,6.966,0,0,0,2.233,2.179l0.334-.993a7.009,7.009,0,0,1-1.775-2.338,13.087,13.087,0,0,1-1.24-5.888l0.009-.747a13.038,13.038,0,0,1,.9-4.527,7.006,7.006,0,0,1,2.1-3.006L330.53,188.4a6.755,6.755,0,0,0-2.189,2.109,11.083,11.083,0,0,0-1.586,3.323,13.564,13.564,0,0,0-.532,3.814,12.222,12.222,0,0,0,2.074,7.146h0Zm8.882-2.127a0.972,0.972,0,0,0,.751.272,1,1,0,0,0,.761-0.272,0.947,0.947,0,0,0,.259-0.677,1,1,0,0,0-.259-0.7A0.983,0.983,0,0,0,337.93,201a0.952,0.952,0,0,0-.751.281,1.018,1.018,0,0,0-.251.7A0.963,0.963,0,0,0,337.179,202.66Zm4.737,0a0.975,0.975,0,0,0,.752.272,1,1,0,0,0,.76-0.272,0.943,0.943,0,0,0,.259-0.677,1,1,0,0,0-.259-0.7,0.981,0.981,0,0,0-.76-0.281,0.954,0.954,0,0,0-.752.281,1.017,1.017,0,0,0-.25.7A0.962,0.962,0,0,0,341.916,202.66Zm4.737,0a0.975,0.975,0,0,0,.752.272,1,1,0,0,0,.76-0.272,0.943,0.943,0,0,0,.259-0.677,1,1,0,0,0-.259-0.7,0.981,0.981,0,0,0-.76-0.281,0.954,0.954,0,0,0-.752.281,1.017,1.017,0,0,0-.25.7A0.962,0.962,0,0,0,346.653,202.66Zm9.95,1.3a4,4,0,0,0,.435-1.775v-1.274h-1.591v1.467a4.248,4.248,0,0,1-.861,2.373l0.922,0.633A4.146,4.146,0,0,0,356.6,203.96Zm7.233-1.3a0.975,0.975,0,0,0,.752.272,1,1,0,0,0,.76-0.272,0.943,0.943,0,0,0,.259-0.677,1,1,0,0,0-.259-0.7,0.981,0.981,0,0,0-.76-0.281,0.954,0.954,0,0,0-.752.281,1.017,1.017,0,0,0-.25.7A0.962,0.962,0,0,0,363.836,202.66Zm4.737,0a0.975,0.975,0,0,0,.752.272,1,1,0,0,0,.76-0.272,0.943,0.943,0,0,0,.259-0.677,1,1,0,0,0-.259-0.7,0.981,0.981,0,0,0-.76-0.281,0.954,0.954,0,0,0-.752.281,1.017,1.017,0,0,0-.25.7A0.962,0.962,0,0,0,368.573,202.66Zm4.738,0a0.972,0.972,0,0,0,.751.272,1,1,0,0,0,.76-0.272,0.944,0.944,0,0,0,.26-0.677,1,1,0,0,0-.26-0.7,0.981,0.981,0,0,0-.76-0.281,0.952,0.952,0,0,0-.751.281,1.018,1.018,0,0,0-.251.7A0.963,0.963,0,0,0,373.311,202.66Zm12.137-8.807a11.121,11.121,0,0,0-1.573-3.313,6.872,6.872,0,0,0-2.21-2.145l-0.343.993a6.573,6.573,0,0,1,1.551,1.96,11.6,11.6,0,0,1,1.077,2.843,14.466,14.466,0,0,1,.386,3.433v0.281a13.916,13.916,0,0,1-.839,4.847,7.067,7.067,0,0,1-2.175,3.221l0.343,0.993a6.885,6.885,0,0,0,2.219-2.162,11.112,11.112,0,0,0,1.573-3.318,13.581,13.581,0,0,0,.514-3.757A13.9,13.9,0,0,0,385.448,193.853Z"/>
  <path class="cls-11" d="M391,144l8,8s-0.007,1,0,1-153.993-.007-154,0,0.008,2.986.01,3,154,0,153.99,0a9.53,9.53,0,0,0,0,1l-8,8h6l10-10v-1l-10-10h-6Z"/>
  <path class="cls-11" d="M766,143l8,8s-0.007,1,0,1-153.993-.007-154,0,0.008,2.986.01,3,154,0,153.99,0a9.53,9.53,0,0,0,0,1l-8,8h6l10-10v-1l-10-10h-6Z"/>
  <text id="_2nd_state" data-name="2nd state" class="cls-12" x="833.264" y="83.093">2nd state</text>
  <text id="_1st_state" data-name="1st state" class="cls-12" x="457.263" y="83.093">1st state</text>
  <text id="start" class="cls-13" x="135.263" y="83.093"><tspan x="135.263">start</tspan></text>
  <path id="frame_" data-name="frame " class="cls-14" d="M45,99H231V222H45V99Zm374.5,0h186V222h-186V99ZM794,99H980V222H794V99Z"/>
  <path id="plots" class="cls-7" d="M474,150h17v42H474V150Zm31-14h17v56H505V136Zm30,24h17v32H535V160Zm340-31a11,11,0,1,1-11,11A11,11,0,0,1,875,129Zm13.656,27.281a18.36,18.36,0,1,1-18.437,18.36A18.4,18.4,0,0,1,888.656,156.281ZM901,139a7,7,0,1,1-7,7A7,7,0,0,1,901,139Z"/>
</svg>
