<?xml version="1.0" encoding="UTF-8"?>
<svg width="690" height="210" version="1.1" viewBox="0 0 690 210" xml:space="preserve" xmlns="http://www.w3.org/2000/svg">
<desc>Created with Fabric.js 5.3.0</desc>

<g id="dCCCjkPS51vS7OPuvdBka" transform="matrix(.35836 0 0 .29324 578.26 58.418)">
<path d="m-131.92-23.6h263.83v47.199h-263.83z" fill="#4474cd" stroke-linecap="round" stroke-width="0" vector-effect="non-scaling-stroke"/>
</g>
<g transform="matrix(.4629 0 0 .29324 592.05 76.254)">
<path d="m-131.92-23.6h263.83v47.199h-263.83z" fill="#07af73" stroke-linecap="round" stroke-width="0" vector-effect="non-scaling-stroke"/>
</g>
<g transform="matrix(.26444 0 0 .29324 565.87 94.269)">
<path d="m-131.92-23.6h263.83v47.199h-263.83z" fill="#f4c30a" stroke-linecap="round" stroke-width="0" vector-effect="non-scaling-stroke"/>
</g>
<g id="ctKgIC9gVggV9qBIF9LkM" transform="translate(65.01 17.323)">
		<g fill-opacity=".26" style="white-space:pre" aria-label="dimensions"><path d="m-37.673 5.8145-0.12305-1.0107q-0.94043 1.1865-2.4346 1.1865-1.7666 0-2.7422-1.3711-0.97559-1.3711-0.97559-3.4453v-0.18457q0-2.1709 0.97559-3.5156 0.97559-1.3447 2.7598-1.3447 1.3887 0 2.2852 1.0283v-4.8428h2.5488v13.5zm-3.7266-4.6406q0 1.1426 0.4043 1.9512 0.4043 0.7998 1.4062 0.7998 1.1602 0 1.6611-0.98438v-3.7705q-0.4834-0.98438-1.6436-0.98438-0.99316 0-1.415 0.80859-0.41309 0.80859-0.41309 2.1797z"/><path d="m-33.419-6.1562q0-0.57129 0.38672-0.94043 0.38672-0.37793 1.0371-0.37793t1.0371 0.37793q0.38672 0.36914 0.38672 0.94043 0 0.5625-0.38672 0.94043-0.38672 0.36914-1.0371 0.36914t-1.0371-0.36914q-0.38672-0.37793-0.38672-0.94043zm2.707 2.4609v9.5098h-2.5488v-9.5098z"/><path d="m-24.525-1.8144q-1.0547 0-1.5557 0.89648v6.7324h-2.5488v-9.5098h2.3906l0.08789 1.0459q0.99316-1.2217 2.7246-1.2217 1.8369 0 2.5225 1.4502 0.97559-1.4502 2.8564-1.4502 1.3711 0 2.2061 0.80859 0.83496 0.80859 0.84375 2.7773v6.0996h-2.5488v-6.0645q0-0.94922-0.38672-1.2568-0.37793-0.30762-1.0371-0.30762-1.125 0-1.5732 1.0635v6.5654h-2.54v-6.0469q0-0.94043-0.38672-1.2568-0.38672-0.3252-1.0547-0.3252z"/><path d="m-4.9517 4.2676q-0.45703 0.65039-1.3887 1.1865-0.93164 0.53613-2.3203 0.53613-2.2148 0-3.4629-1.3359-1.248-1.3447-1.2568-3.2432v-0.36914q0-2.1533 1.1953-3.5332 1.2041-1.3799 3.2432-1.3799 2.0479 0 3.1201 1.2832 1.0723 1.2832 1.0723 3.3926v1.0811h-6.0557q0.13184 0.92285 0.72949 1.4941 0.59766 0.5625 1.5732 0.5625 1.4502 0 2.2939-1.0635zm-4.0078-6.0908q-0.80859 0-1.248 0.54492-0.43945 0.54492-0.57129 1.4238h3.5332v-0.19336q-0.017578-0.76465-0.43066-1.2656-0.4043-0.50977-1.2832-0.50977z"/><path d="m0.78759-1.8144q-1.0811 0-1.6084 0.91406v6.7148h-2.54v-9.5098h2.3818l0.087891 1.0898q1.0195-1.2656 2.7334-1.2656 1.3447 0 2.1709 0.7998 0.82617 0.7998 0.83496 2.7861v6.0996h-2.5488v-6.0645q0-0.91406-0.39551-1.2393-0.38672-0.3252-1.1162-0.3252z"/><path d="m11.915 3.1778q0-0.4043-0.37793-0.67676-0.36914-0.28125-1.5996-0.54492-1.4678-0.31641-2.4082-0.98438t-0.94043-1.8896q0-1.1865 1.002-2.0654 1.0107-0.8877 2.7861-0.8877 1.8545 0 2.918 0.87012t1.0635 2.1973h-2.54q0-0.54492-0.35156-0.90527-0.35156-0.36035-1.0986-0.36035-0.63281 0-0.99316 0.29883-0.35156 0.29004-0.35156 0.72949 0 0.4043 0.37793 0.66797 0.37793 0.26367 1.3975 0.46582 1.5469 0.30762 2.5664 0.94043 1.0195 0.63281 1.0195 2.0479 0 1.2568-1.0811 2.083-1.0811 0.82617-2.918 0.82617-1.9951 0-3.0498-1.0195-1.0547-1.0283-1.0547-2.1885h2.417q0.035156 0.74707 0.54492 1.0723 0.51855 0.3252 1.1953 0.3252 1.4766 0 1.4766-1.002z"/><path d="m16.01-6.1562q0-0.57129 0.38672-0.94043 0.38672-0.37793 1.0371-0.37793 0.65039 0 1.0371 0.37793 0.38672 0.36914 0.38672 0.94043 0 0.5625-0.38672 0.94043-0.38672 0.36914-1.0371 0.36914-0.65039 0-1.0371-0.36914-0.38672-0.37793-0.38672-0.94043zm2.707 2.4609v9.5098h-2.5488v-9.5098z"/><path d="m20.405 0.97175q0-2.0742 1.1777-3.4541 1.1777-1.3887 3.3223-1.3887 2.1709 0 3.3398 1.3887 1.1689 1.3799 1.1689 3.4541v0.18457q0 2.0742-1.1689 3.4541-1.1689 1.3799-3.3223 1.3799-2.1357 0-3.3135-1.3447-1.1689-1.3447-1.2041-3.375zm2.5488 0.18457q0 1.1602 0.43945 1.9775 0.44824 0.80859 1.5293 0.80859 1.0635 0 1.5029-0.80859 0.44824-0.80859 0.44824-2.1621 0-1.1338-0.44824-1.96-0.43945-0.83496-1.5205-0.83496-1.0723 0-1.5117 0.82617-0.43945 0.82617-0.43945 2.1533z"/><path d="m35.083-1.8144q-1.0811 0-1.6084 0.91406v6.7148h-2.54v-9.5098h2.3818l0.08789 1.0898q1.0195-1.2656 2.7334-1.2656 1.3447 0 2.1709 0.7998t0.83496 2.7861v6.0996h-2.5488v-6.0645q0-0.91406-0.39551-1.2393-0.38672-0.3252-1.1162-0.3252z"/><path d="m46.209 3.1778q0-0.4043-0.37793-0.67676-0.36914-0.28125-1.5996-0.54492-1.4678-0.31641-2.4082-0.98438t-0.94043-1.8896q0-1.1865 1.002-2.0654 1.0107-0.8877 2.7861-0.8877 1.8545 0 2.918 0.87012 1.0635 0.87012 1.0635 2.1973h-2.54q0-0.54492-0.35156-0.90527-0.35156-0.36035-1.0986-0.36035-0.63281 0-0.99316 0.29883-0.35156 0.29004-0.35156 0.72949 0 0.4043 0.37793 0.66797 0.37793 0.26367 1.3975 0.46582 1.5469 0.30762 2.5664 0.94043 1.0195 0.63281 1.0195 2.0479 0 1.2568-1.0811 2.083-1.0811 0.82617-2.918 0.82617-1.9951 0-3.0498-1.0195-1.0547-1.0283-1.0547-2.1885h2.417q0.03516 0.74707 0.54492 1.0723 0.51856 0.3252 1.1953 0.3252 1.4766 0 1.4766-1.002z"/></g>
<style>
        </style></g><g id="Ux0uxV5SzCNusBVKbXhjz" transform="translate(182.47 17.323)">
		<g fill-opacity=".15" style="white-space:pre" aria-label="measures"><path d="m-37.415-1.8144q-1.0547 0-1.5557 0.89648v6.7324h-2.5488v-9.5098h2.3906l0.08789 1.0459q0.99316-1.2217 2.7246-1.2217 1.8369 0 2.5225 1.4502 0.97559-1.4502 2.8564-1.4502 1.3711 0 2.2061 0.80859 0.83496 0.80859 0.84375 2.7773v6.0996h-2.5488v-6.0645q0-0.94922-0.38672-1.2568-0.37793-0.30762-1.0371-0.30762-1.125 0-1.5732 1.0635v6.5654h-2.54v-6.0469q0-0.94043-0.38672-1.2568-0.38672-0.3252-1.0547-0.3252z"/><path d="m-17.841 4.2676q-0.45703 0.65039-1.3887 1.1865-0.93164 0.53613-2.3203 0.53613-2.2148 0-3.4629-1.3359-1.248-1.3447-1.2568-3.2432v-0.36914q0-2.1533 1.1953-3.5332 1.2041-1.3799 3.2432-1.3799 2.0479 0 3.1201 1.2832 1.0723 1.2832 1.0723 3.3926v1.0811h-6.0557q0.13184 0.92285 0.72949 1.4941 0.59766 0.5625 1.5732 0.5625 1.4502 0 2.2939-1.0635zm-4.0078-6.0908q-0.80859 0-1.248 0.54492-0.43945 0.54492-0.57129 1.4238h3.5332v-0.19336q-0.01758-0.76465-0.43066-1.2656-0.4043-0.50977-1.2832-0.50977z"/><path d="m-10.696 5.8145q-0.1582-0.33398-0.25488-0.85254-0.92285 1.0283-2.3994 1.0283-1.3623 0-2.2939-0.7998-0.93164-0.80859-0.93164-2.0479 0-1.4941 1.1074-2.3115 1.1074-0.82617 3.2783-0.82617h1.1338v-0.55371q0-0.65918-0.34277-1.0459-0.33398-0.39551-1.0635-0.39551-1.3623 0-1.3623 1.1426h-2.54q0-1.2393 1.0986-2.127 1.0986-0.89648 2.9443-0.89648 1.6436 0 2.7246 0.83496 1.0898 0.83496 1.0898 2.5049v4.2363q0.017578 1.2656 0.37793 1.96v0.14941zm-2.1006-1.7666q0.6416 0 1.0898-0.28125 0.45703-0.29004 0.65039-0.63281v-1.6523h-1.0371q-1.0107 0-1.4766 0.43066-0.46582 0.42188-0.46582 1.0459 0 0.47461 0.3252 0.78223 0.33398 0.30762 0.91406 0.30762z"/><path d="m-1.4059 3.1778q0-0.4043-0.37793-0.67676-0.36914-0.28125-1.5996-0.54492-1.4678-0.31641-2.4082-0.98438t-0.94043-1.8896q0-1.1865 1.002-2.0654 1.0107-0.8877 2.7861-0.8877 1.8545 0 2.918 0.87012 1.0635 0.87012 1.0635 2.1973h-2.54q0-0.54492-0.35156-0.90527t-1.0986-0.36035q-0.63281 0-0.99316 0.29883-0.35156 0.29004-0.35156 0.72949 0 0.4043 0.37793 0.66797 0.37793 0.26367 1.3975 0.46582 1.5469 0.30762 2.5664 0.94043 1.0195 0.63281 1.0195 2.0479 0 1.2568-1.0811 2.083-1.0811 0.82617-2.918 0.82617-1.9951 0-3.0498-1.0195-1.0547-1.0283-1.0547-2.1885h2.417q0.035156 0.74707 0.54492 1.0723 0.51855 0.3252 1.1953 0.3252 1.4766 0 1.4766-1.002z"/><path d="m8.4818 5.8145-0.070312-0.97559q-0.93164 1.1514-2.6016 1.1514-1.3975 0-2.2764-0.81738-0.87012-0.81738-0.87891-2.6807v-6.1875h2.54v6.1699q0 0.79102 0.37793 1.125 0.37793 0.3252 0.9668 0.3252 1.292 0 1.7842-0.90527v-6.7148h2.5488v9.5098z"/><path d="m17.218-1.3925q-1.4326 0-1.8809 0.97559v6.2314h-2.5488v-9.5098h2.3994l0.0791 1.1338q0.74707-1.3096 2.1182-1.3096 0.4834 0 0.78223 0.11426l-0.02637 2.4346z"/><path d="m27.29 4.2676q-0.45703 0.65039-1.3887 1.1865-0.93164 0.53613-2.3203 0.53613-2.2148 0-3.4629-1.3359-1.248-1.3447-1.2568-3.2432v-0.36914q0-2.1533 1.1953-3.5332 1.2041-1.3799 3.2432-1.3799 2.0479 0 3.1201 1.2832 1.0723 1.2832 1.0723 3.3926v1.0811h-6.0557q0.13184 0.92285 0.72949 1.4941 0.59766 0.5625 1.5732 0.5625 1.4502 0 2.2939-1.0635zm-4.0078-6.0908q-0.80859 0-1.248 0.54492-0.43945 0.54492-0.57129 1.4238h3.5332v-0.19336q-0.01758-0.76465-0.43066-1.2656-0.4043-0.50977-1.2832-0.50977z"/><path d="m34.076 3.1778q0-0.4043-0.37793-0.67676-0.36914-0.28125-1.5996-0.54492-1.4678-0.31641-2.4082-0.98438-0.94043-0.66797-0.94043-1.8896 0-1.1865 1.002-2.0654 1.0107-0.8877 2.7861-0.8877 1.8545 0 2.918 0.87012 1.0635 0.87012 1.0635 2.1973h-2.54q0-0.54492-0.35156-0.90527-0.35156-0.36035-1.0986-0.36035-0.63281 0-0.99316 0.29883-0.35156 0.29004-0.35156 0.72949 0 0.4043 0.37793 0.66797 0.37793 0.26367 1.3975 0.46582 1.5469 0.30762 2.5664 0.94043 1.0195 0.63281 1.0195 2.0479 0 1.2568-1.0811 2.083-1.0811 0.82617-2.918 0.82617-1.9951 0-3.0498-1.0195-1.0547-1.0283-1.0547-2.1885h2.417q0.03516 0.74707 0.54492 1.0723 0.51856 0.3252 1.1953 0.3252 1.4766 0 1.4766-1.002z"/></g>
</g>
<g id="XxQZEdDaHar_Hy-nrRcuT" transform="matrix(.39624 0 0 .20071 284.41 60.474)">
<path d="m61.998 13.401v-11.465h-139.66v-5.3856h139.66v-9.9502l15.668 12.788z" fill="#dadada" stroke-linecap="round" vector-effect="non-scaling-stroke"/>
</g>
<g id="wzHRSpqrTRX_UWIo-KrYQ" transform="translate(214.73 168.49)">
		<g fill="#f40a0a" fill-opacity=".55" stroke-width=".26458" style="white-space:pre" aria-label="✗"><path d="m3.4375-6.6525q0.078125 0 0.20312 0.125 0.13281 0.125 0.27344 0.32812 0.22656-0.39844 0.35938-0.39844 0.11719 0 0.32031 0.21094 0.125 0.13281 0.125 0.29688 0 0.21094-0.17188 0.39062-1.625 1.7656-3.1562 3.8828 0.63281 1.5469 1.75 3.4141 0.09375 0.15625 0.09375 0.25 0 0.17969-0.23438 0.375l-0.25 0.17188q0.03125 0.09375 0.03125 0.25 0 0.23438-0.17188 0.35938-0.20312 0.14062-0.29688 0.14062-0.20312 0-0.35938-0.20312-0.9375-1.2031-1.9375-2.8281-1.3438 1.75-3.0781 4.6719-0.25 0.42188-0.84375 0.42188-0.28125 0-0.3125-0.32812-0.39844-0.21875-0.39844-0.69531 0-0.625 0.085937-0.86719 0.039063-0.10938 0.25-0.4375 1.5938-2.4844 3.375-4.5625-0.95312-2.2656-1.2656-3.4922-0.070312-0.27344-0.070312-0.35156 0-0.10938 0.14062-0.3125 0.14844-0.20312 0.27344-0.20312 0.11719 0 0.29688 0.22656 0.070312-0.13281 0.17188-0.22656 0.14062-0.125 0.35938-0.125 0.25 0 0.32812 0.23438 0.42188 1.3125 1.1094 2.5 1.1094-1.4375 2.7031-3.0312 0.1875-0.1875 0.29688-0.1875z"/></g>
<style>
        </style></g><g id="voQ7XZE7JzUSQzWo42o1w" transform="translate(100.2 168.49)">
		<g fill="#f40a0a" fill-opacity=".55" stroke-width=".26458" style="white-space:pre" aria-label="✗"><path d="m3.4375-6.6525q0.078125 0 0.20312 0.125 0.13281 0.125 0.27344 0.32812 0.22656-0.39844 0.35938-0.39844 0.11719 0 0.32031 0.21094 0.125 0.13281 0.125 0.29688 0 0.21094-0.17188 0.39062-1.625 1.7656-3.1562 3.8828 0.63281 1.5469 1.75 3.4141 0.09375 0.15625 0.09375 0.25 0 0.17969-0.23438 0.375l-0.25 0.17188q0.03125 0.09375 0.03125 0.25 0 0.23438-0.17188 0.35938-0.20312 0.14062-0.29688 0.14062-0.20312 0-0.35938-0.20312-0.9375-1.2031-1.9375-2.8281-1.3438 1.75-3.0781 4.6719-0.25 0.42188-0.84375 0.42188-0.28125 0-0.3125-0.32812-0.39844-0.21875-0.39844-0.69531 0-0.625 0.085937-0.86719 0.039063-0.10938 0.25-0.4375 1.5938-2.4844 3.375-4.5625-0.95312-2.2656-1.2656-3.4922-0.070312-0.27344-0.070312-0.35156 0-0.10938 0.14062-0.3125 0.14844-0.20312 0.27344-0.20312 0.11719 0 0.29688 0.22656 0.070312-0.13281 0.17188-0.22656 0.14062-0.125 0.35938-0.125 0.25 0 0.32812 0.23438 0.42188 1.3125 1.1094 2.5 1.1094-1.4375 2.7031-3.0312 0.1875-0.1875 0.29688-0.1875z"/></g>
</g>
<g id="K_vNVXMKSZohcT5eN1gCH" transform="matrix(0 -.39624 .20071 0 357.55 141.7)">
<path d="m55.308 13.401v-11.465l-126.28-0.3789v-5.0067h126.28v-9.9502l15.668 12.788z" fill="#dadada" stroke-linecap="round" vector-effect="non-scaling-stroke"/>
</g>
<g id="TUxUGgBQcWEoI5hOJgSzz" transform="matrix(.39624 0 0 .20071 488.85 60.502)">
<path d="m61.998 13.401v-11.465h-139.66v-5.3856h139.66v-9.9502l15.668 12.788z" fill="#dadada" stroke-linecap="round" vector-effect="non-scaling-stroke"/>
</g>
<g id="BIxMsb8OzKBquBBLwJE1y" transform="matrix(.39624 0 0 .20071 488.85 77.73)">
<path d="m61.998 13.401v-11.465h-139.66v-5.3856h139.66v-9.9502l15.668 12.788z" fill="#dadada" stroke-linecap="round" vector-effect="non-scaling-stroke"/>
</g>
<g id="fmVcvCz8WzHv8b1Yv2XzE" transform="matrix(.39624 0 0 .20071 488.85 94.567)">
<path d="m61.998 13.401v-11.465h-139.66v-5.3856h139.66v-9.9502l15.668 12.788z" fill="#dadada" stroke-linecap="round" vector-effect="non-scaling-stroke"/>
</g>
<g id="LShCjzHJKaxSwlMANwWZV" transform="matrix(.31044 0 0 .14094 155.78 43.274)">
<path d="m-92.281-61.117h184.56v122.23h-184.56z" fill-opacity=".15" stroke="#dadada" vector-effect="non-scaling-stroke"/>
</g>
<g id="2CbYUQg6CrypdpIYDvZQk" transform="matrix(.31044 0 0 .14094 213.07 43.274)">
<path d="m-92.281-61.117h184.56v122.23h-184.56z" fill-opacity=".15" stroke="#dadada" vector-effect="non-scaling-stroke"/>
</g>
<g id="x6SsAwj3zlN53XE9OLCFj" transform="matrix(.31044 0 0 .14094 155.78 60.502)">
<path d="m-92.281-61.117h184.56v122.23h-184.56z" fill="none" stroke="#dadada" vector-effect="non-scaling-stroke"/>
</g>
<g id="xMqfXzfPn35uq7djyz0jf" transform="matrix(.31044 0 0 .14094 213.07 60.502)">
<path d="m-92.281-61.117h184.56v122.23h-184.56z" fill="none" stroke="#dadada" vector-effect="non-scaling-stroke"/>
</g>
<g id="1RvJ6KC__mNJ9w68AN_fm" transform="matrix(.31044 0 0 .14094 155.78 77.73)">
<path d="m-92.281-61.117h184.56v122.23h-184.56z" fill="none" stroke="#dadada" vector-effect="non-scaling-stroke"/>
</g>
<g id="FhH9LDuIutXlteREZyc3u" transform="matrix(.31044 0 0 .14094 213.07 77.73)">
<path d="m-92.281-61.117h184.56v122.23h-184.56z" fill="none" stroke="#dadada" vector-effect="non-scaling-stroke"/>
</g>
<g id="MPMiU4DFj5krNPOEh7B6o" transform="matrix(.31044 0 0 .14094 155.78 94.958)">
<path d="m-92.281-61.117h184.56v122.23h-184.56z" fill="none" stroke="#dadada" vector-effect="non-scaling-stroke"/>
</g>
<g id="IR9GLCnZk-FIzL2Z_1k4B" transform="matrix(.31044 0 0 .14094 213.07 94.958)">
<path d="m-92.281-61.117h184.56v122.23h-184.56z" fill="none" stroke="#dadada" vector-effect="non-scaling-stroke"/>
</g>
<g id="__GeAZ-_ECTTVBoGo-neh" transform="matrix(.31044 0 0 .14094 155.78 112.19)">
<path d="m-92.281-61.117h184.56v122.23h-184.56z" fill="none" stroke="#dadada" vector-effect="non-scaling-stroke"/>
</g>
<g id="ui5IjmSOaDzzzLAIosxjH" transform="matrix(.31044 0 0 .14094 213.07 112.19)">
<path d="m-92.281-61.117h184.56v122.23h-184.56z" fill="none" stroke="#dadada" vector-effect="non-scaling-stroke"/>
</g>
<g id="cnLvSXaRpH1UlH9D0-nIK" transform="matrix(.31044 0 0 .14094 155.78 129.41)">
<path d="m-92.281-61.117h184.56v122.23h-184.56z" fill="none" stroke="#dadada" vector-effect="non-scaling-stroke"/>
</g>
<g id="tp7A7oPwoZPv0fkYNfMua" transform="matrix(.31044 0 0 .14094 213.07 129.41)">
<path d="m-92.281-61.117h184.56v122.23h-184.56z" fill="none" stroke="#dadada" vector-effect="non-scaling-stroke"/>
</g>
<g id="fR9a5ozXM0QcAs7dj3xX-" transform="matrix(.31044 0 0 .14094 155.78 146.64)">
<path d="m-92.281-61.117h184.56v122.23h-184.56z" fill="none" stroke="#dadada" vector-effect="non-scaling-stroke"/>
</g>
<g id="8xVHUO4JM2tHLWgw3553l" transform="matrix(.31044 0 0 .14094 213.07 146.64)">
<path d="m-92.281-61.117h184.56v122.23h-184.56z" fill="none" stroke="#dadada" vector-effect="non-scaling-stroke"/>
</g>
<g id="cyGL_OvMctuFPlJH0uJpC" transform="matrix(.31044 0 0 .14094 357.36 42.883)">
<path d="m-92.281-61.117h184.56v122.23h-184.56z" fill="#bdbdbd" stroke="#dadada" vector-effect="non-scaling-stroke"/>
</g>
<g id="Ia1FzAxz1ACuT47NrZsvO" transform="matrix(.31044 0 0 .14094 414.66 42.883)">
<path d="m-92.281-61.117h184.56v122.23h-184.56z" fill="#d9d9d9" stroke="#dadada" vector-effect="non-scaling-stroke"/>
</g>
<g transform="matrix(.31044 0 0 .14094 357.36 60.111)">
<path d="m-92.281-61.117h184.56v122.23h-184.56z" fill="#81a1dd" stroke="#dadada" vector-effect="non-scaling-stroke"/>
</g>
<g id="mF4Y_-NcAzk0gskAhhzYB" transform="matrix(.31044 0 0 .14094 414.66 60.111)">
<path d="m-92.281-61.117h184.56v122.23h-184.56z" fill="none" stroke="#dadada" vector-effect="non-scaling-stroke"/>
</g>
<g id="hvR4KWQZdR4vAU7NtLWAz" transform="matrix(.31044 0 0 .14094 357.36 77.339)">
<path d="m-92.281-61.117h184.56v122.23h-184.56z" fill="#62cca6" stroke="#dadada" vector-effect="non-scaling-stroke"/>
</g>
<g transform="matrix(.31044 0 0 .14094 414.66 77.339)">
<path d="m-92.281-61.117h184.56v122.23h-184.56z" fill="none" stroke="#dadada" vector-effect="non-scaling-stroke"/>
</g>
<g transform="matrix(.31044 0 0 .14094 357.36 94.567)">
<path d="m-92.281-61.117h184.56v122.23h-184.56z" fill="#fae38b" stroke="#dadada" vector-effect="non-scaling-stroke"/>
</g>
<g id="IQUH_bJFj6kaLKWLs6VjJ" transform="matrix(.31044 0 0 .14094 414.66 94.567)">
<path d="m-92.281-61.117h184.56v122.23h-184.56z" fill="none" stroke="#dadada" vector-effect="non-scaling-stroke"/>
</g>
<g id="j_QjerqRqhUI7XTdXo4Zp" transform="matrix(.93995 0 0 .69244 591.66 76.589)">
<path d="m-92.281-61.117h184.56v122.23h-184.56z" fill="none" stroke="#dadada" vector-effect="non-scaling-stroke"/>
</g>
<g id="USYxwxSrtJ16UEZRiFOPl" transform="matrix(.4629 0 0 .4629 651.53 98.77)">
<path transform="translate(-337.36 -302.22)" d="m337.36 302.22h2e-3" fill="none" stroke="#949494" stroke-linecap="round" stroke-linejoin="round" stroke-miterlimit="10" vector-effect="non-scaling-stroke"/>
</g>
<g transform="matrix(.31044 0 0 .14094 41.186 43.274)">
<path d="m-92.281-61.117h184.56v122.23h-184.56z" fill-opacity=".26" stroke="#dadada" vector-effect="non-scaling-stroke"/>
</g>
<g id="QWRVc9zgluP3b30MBPWLp" transform="matrix(.31044 0 0 .14094 98.481 43.274)">
<path d="m-92.281-61.117h184.56v122.23h-184.56z" fill-opacity=".26" stroke="#dadada" vector-effect="non-scaling-stroke"/>
</g>
<g id="Vrp8W3stSHkT9_w7eOUXN" transform="matrix(.31044 0 0 .14094 41.186 60.502)">
<path d="m-92.281-61.117h184.56v122.23h-184.56z" fill="#4474cd" fill-opacity=".67" stroke="#dadada" vector-effect="non-scaling-stroke"/>
</g>
<g id="qj_udmQajPFc3P98o3fav" transform="matrix(.31044 0 0 .14094 98.481 60.502)">
<path d="m-92.281-61.117h184.56v122.23h-184.56z" fill="#ccc" fill-opacity=".67" stroke="#dadada" vector-effect="non-scaling-stroke"/>
</g>
<g transform="matrix(.31044 0 0 .14094 41.186 77.73)">
<path d="m-92.281-61.117h184.56v122.23h-184.56z" fill="#4474cd" fill-opacity=".67" stroke="#dadada" vector-effect="non-scaling-stroke"/>
</g>
<g id="bymVhLPCGMS7drlsyWTFm" transform="matrix(.31044 0 0 .14094 98.481 77.73)">
<path d="m-92.281-61.117h184.56v122.23h-184.56z" fill="#ececec" stroke="#dadada" vector-effect="non-scaling-stroke"/>
</g>
<g id="eDV5yI8LUXCKd3-Mz3R7F" transform="matrix(.31044 0 0 .14094 41.186 94.958)">
<path d="m-92.281-61.117h184.56v122.23h-184.56z" fill="#07af73" fill-opacity=".63" stroke="#dadada" vector-effect="non-scaling-stroke"/>
</g>
<g id="tgt3Dv64W0kibRyMJ7acl" transform="matrix(.31044 0 0 .14094 98.481 94.958)">
<path d="m-92.281-61.117h184.56v122.23h-184.56z" fill="#ccc" fill-opacity=".67" stroke="#dadada" vector-effect="non-scaling-stroke"/>
</g>
<g id="EwsFI4yjomQH0cGEjJage" transform="matrix(.31044 0 0 .14094 41.186 112.19)">
<path d="m-92.281-61.117h184.56v122.23h-184.56z" fill="#07af73" fill-opacity=".63" stroke="#dadada" vector-effect="non-scaling-stroke"/>
</g>
<g id="8xHWQKIzdJbUnlhaV0V4s" transform="matrix(.31044 0 0 .14094 98.481 112.19)">
<path d="m-92.281-61.117h184.56v122.23h-184.56z" fill="#ececec" stroke="#dadada" vector-effect="non-scaling-stroke"/>
</g>
<g id="qTCHNDsgbkRkywHEoF_mk" transform="matrix(.31044 0 0 .14094 41.186 129.41)">
<path d="m-92.281-61.117h184.56v122.23h-184.56z" fill="#f4c30a" fill-opacity=".47" stroke="#dadada" vector-effect="non-scaling-stroke"/>
</g>
<g id="zy3BgGEz6xFD7V6i00GlM" transform="matrix(.31044 0 0 .14094 98.481 129.41)">
<path d="m-92.281-61.117h184.56v122.23h-184.56z" fill="#ccc" fill-opacity=".67" stroke="#dadada" vector-effect="non-scaling-stroke"/>
</g>
<g id="aLLk3LvV8cwXdS6F_e5jQ" transform="matrix(.31044 0 0 .14094 41.186 146.64)">
<path d="m-92.281-61.117h184.56v122.23h-184.56z" fill="#f4c30a" fill-opacity=".47" stroke="#dadada" vector-effect="non-scaling-stroke"/>
</g>
<g id="kALN4az2cRDucOIN8JKXZ" transform="matrix(.31044 0 0 .14094 98.481 146.64)">
<path d="m-92.281-61.117h184.56v122.23h-184.56z" fill="#ececec" stroke="#dadada" vector-effect="non-scaling-stroke"/>
</g>
<g id="1VkiGI3AICwMn-tWKN1Rr" transform="matrix(.30518 0 0 .30518 127.63 16.267)">
<path d="m0-22.662v53.35-53.35z" fill-opacity="0" stroke="#000" stroke-opacity=".24" vector-effect="non-scaling-stroke"/>
</g>
<g id="lrRKQfKXFpfGYCBnzTXSE" transform="translate(259.11 96.15)">
<path d="m0 0" fill-opacity="0" stroke="#c4c958" vector-effect="non-scaling-stroke"/>
</g>
<g id="hgNSZbLuycPPovVLWwB0x" transform="matrix(.71191 0 0 1 272.67 67.585)">
<path d="m-26.736 7.3027s10.42-0.02742 19.477 0c9.0571 0.02742 12.665-9.0271 17.561-12.036s12.427-2.5262 16.435-2.5586" fill-opacity="0" stroke="#dadada" vector-effect="non-scaling-stroke"/>
</g>
<g id="7dBBtvDbIwfOnowRpT4l_" transform="matrix(1.5788 0 0 1 199.2 181.97)">
<path d="m-100.09-16.529c-0.0983 15.417-1.8004 32.361 15.09 32.778s151.96 0.32558 169.29 0c17.335-0.32558 15.742-20.523 15.878-32.778" fill-opacity="0" stroke="#dadada" vector-effect="non-scaling-stroke"/>
</g>
<g transform="matrix(0 -.39624 .20071 0 414.66 133.07)">
<path d="m33.541 13.401v-11.465h-82.75v-5.3856h82.75v-9.9502l15.668 12.788z" fill="#dadada" stroke-linecap="round" vector-effect="non-scaling-stroke"/>
</g>
<g id="vicnuA0EBx94KQ0n8SylA" transform="matrix(1.5788 0 0 1 284.32 168.49)">
<path d="m-82.456-3.5482c0.0978 7.9863-0.42774 19.369 17.05 19.476s112.8 0.32558 130.13 0 17.594-19.773 17.731-32.028" fill-opacity="0" stroke="#dadada" vector-effect="non-scaling-stroke"/>
</g>
</svg>
