<?xml version="1.0" encoding="UTF-8"?>
<svg version="1.1" viewBox="0 0 750 192" xmlns="http://www.w3.org/2000/svg">
	<g fill="#ffffff">
		<path d="M 14,0 92.5,190 171,0 133,0 92.5,106.2 52,0 Z"/>
		<path d="m 196,0 v 188 h 35 V 0 Z"/>
		<path d="M 297,188 405,0 H 366 L 258.5,188 Z" />
		<path d="M 465.5,188 573.5,0 h -39 L 427,188 Z" />
		<path d="m 597.5,0 v 120 c 0,42.5 33,72 70.75,71.5 C 704.5,192 738.72,162 739,120 V 0 H 704 V 120 C 703.76,144.13 690.64,158.5 668.25,158.5 646.14,158.65 632.5,144.5 632.5,120 V 0 Z" />
		<circle r="24.5" cx="286.5" cy="24.75" />
		<circle r="24.5" cx="455" cy="24.75" />
		<circle r="24.5" cx="380.5" cy="163" />
		<circle r="24.5" cx="549" cy="163" />
	</g>
</svg>